<?xml version="1.0" encoding="UTF-8" standalone="no"?>
<!DOCTYPE svg PUBLIC "-//W3C//DTD SVG 1.1//EN"
 "http://www.w3.org/Graphics/SVG/1.1/DTD/svg11.dtd">
<!-- Generated by graphviz version 15.0.0 (20260523.1842)
 -->
<!-- Title: architecture Pages: 1 -->
<svg width="360pt" height="478pt"
 viewBox="0.00 0.00 360.00 478.00" xmlns="http://www.w3.org/2000/svg" xmlns:xlink="http://www.w3.org/1999/xlink">
<g id="graph0" class="graph" transform="scale(1 1) rotate(0) translate(4 473.7)">
<title>architecture</title>
<polygon fill="white" stroke="none" points="-4,4 -4,-473.7 356,-473.7 356,4 -4,4"/>
<g id="clust1" class="cluster">
<title>cluster_desktop</title>
<polygon fill="#fafafa" stroke="#888888" stroke-dasharray="5,2" points="8,-8 8,-461.7 344,-461.7 344,-8 8,-8"/>
<text xml:space="preserve" text-anchor="middle" x="55" y="-447.25" font-family="sans-serif" font-size="11.00">Student desktop</text>
</g>
<!-- gui -->
<g id="node1" class="node">
<title>gui</title>
<path fill="#dae8fc" stroke="#6c8ebf" d="M311.98,-421.7C311.98,-421.7 40.02,-421.7 40.02,-421.7 34.02,-421.7 28.03,-415.7 28.03,-409.7 28.03,-409.7 28.03,-356.9 28.03,-356.9 28.03,-350.9 34.03,-344.9 40.03,-344.9 40.03,-344.9 311.98,-344.9 311.98,-344.9 317.98,-344.9 323.98,-350.9 323.98,-356.9 323.98,-356.9 323.98,-409.7 323.98,-409.7 323.98,-415.7 317.98,-421.7 311.98,-421.7"/>
<text xml:space="preserve" text-anchor="start" x="49.62" y="-396.85" font-family="sans-serif" font-size="11.00">sysreseval &#160;(PySide6 GUI)</text>
<text xml:space="preserve" text-anchor="start" x="49.62" y="-384.85" font-family="sans-serif" font-size="11.00">src/sysreseval/</text>
<text xml:space="preserve" text-anchor="start" x="49.62" y="-372.85" font-family="sans-serif" font-size="11.00"> &#160;&#160;&#160;main_window.py · project_widget.py</text>
<text xml:space="preserve" text-anchor="start" x="49.62" y="-360.85" font-family="sans-serif" font-size="11.00"> &#160;&#160;&#160;view/: machines · questions · evaluations · schema</text>
</g>
<!-- wrapper -->
<g id="node2" class="node">
<title>wrapper</title>
<path fill="#ffe6cc" stroke="#d6b656" d="M282.35,-297.65C282.35,-297.65 69.65,-297.65 69.65,-297.65 63.65,-297.65 57.65,-291.65 57.65,-285.65 57.65,-285.65 57.65,-244.85 57.65,-244.85 57.65,-238.85 63.65,-232.85 69.65,-232.85 69.65,-232.85 282.35,-232.85 282.35,-232.85 288.35,-232.85 294.35,-238.85 294.35,-244.85 294.35,-244.85 294.35,-285.65 294.35,-285.65 294.35,-291.65 288.35,-297.65 282.35,-297.65"/>
<text xml:space="preserve" text-anchor="start" x="79.25" y="-272.8" font-family="sans-serif" font-size="11.00">sre&#45;wrapper &#160;(bin/sre&#45;wrapper, C binary)</text>
<text xml:space="preserve" text-anchor="start" x="79.25" y="-260.8" font-family="sans-serif" font-size="11.00"> &#160;&#160;&#160;• sets USER_USERNAME env var</text>
<text xml:space="preserve" text-anchor="start" x="79.25" y="-248.8" font-family="sans-serif" font-size="11.00"> &#160;&#160;&#160;• sudo /opt/sre/sbin/sre &#45;&#45;user ...</text>
</g>
<!-- gui&#45;&gt;wrapper -->
<g id="edge1" class="edge">
<title>gui&#45;&gt;wrapper</title>
<path fill="none" stroke="black" d="M176,-344.62C176,-333.3 176,-320.8 176,-309.17"/>
<polygon fill="black" stroke="black" points="179.5,-309.42 176,-299.42 172.5,-309.42 179.5,-309.42"/>
<text xml:space="preserve" text-anchor="middle" x="224" y="-317.4" font-family="sans-serif" font-size="10.00"> &#160;calls via sre&#45;wrapper</text>
</g>
<!-- cli -->
<g id="node3" class="node">
<title>cli</title>
<path fill="#dae8fc" stroke="#6c8ebf" d="M308.23,-185.6C308.23,-185.6 43.77,-185.6 43.77,-185.6 37.77,-185.6 31.78,-179.6 31.78,-173.6 31.78,-173.6 31.78,-130.55 31.78,-130.55 31.78,-124.55 37.78,-118.55 43.78,-118.55 43.78,-118.55 308.23,-118.55 308.23,-118.55 314.23,-118.55 320.23,-124.55 320.23,-130.55 320.23,-130.55 320.23,-173.6 320.23,-173.6 320.23,-179.6 314.23,-185.6 308.23,-185.6"/>
<text xml:space="preserve" text-anchor="start" x="53.38" y="-160.75" font-family="sans-serif" font-size="11.00">sre CLI &#160;(src/sre.py → src/SRE/)</text>
<text xml:space="preserve" text-anchor="start" x="53.38" y="-146.5" font-family="sans-serif" font-size="11.00">command/: start · eval · stop · watch · sheet · cat …</text>
<text xml:space="preserve" text-anchor="start" x="53.38" y="-134.5" font-family="sans-serif" font-size="11.00">lib_sre.py: Data0 · NetScheme0 · Grade0 · Flavor0</text>
</g>
<!-- wrapper&#45;&gt;cli -->
<g id="edge2" class="edge">
<title>wrapper&#45;&gt;cli</title>
<path fill="none" stroke="black" d="M176,-232.39C176,-221.52 176,-209.15 176,-197.47"/>
<polygon fill="black" stroke="black" points="179.5,-197.61 176,-187.61 172.5,-197.61 179.5,-197.61"/>
<text xml:space="preserve" text-anchor="middle" x="224.38" y="-205.35" font-family="sans-serif" font-size="10.00"> &#160;setuid(sre_uid=1100)</text>
</g>
<!-- docker -->
<g id="node4" class="node">
<title>docker</title>
<path fill="#d5e8d4" stroke="#82b366" d="M304.48,-81.55C304.48,-81.55 47.52,-81.55 47.52,-81.55 41.52,-81.55 35.53,-75.55 35.53,-69.55 35.53,-69.55 35.53,-40 35.53,-40 35.53,-34 41.53,-28 47.53,-28 47.53,-28 304.48,-28 304.48,-28 310.48,-28 316.48,-34 316.48,-40 316.48,-40 316.48,-69.55 316.48,-69.55 316.48,-75.55 310.48,-81.55 304.48,-81.55"/>
<text xml:space="preserve" text-anchor="start" x="57.12" y="-56.7" font-family="sans-serif" font-size="11.00">Kathara / Docker</text>
<text xml:space="preserve" text-anchor="start" x="57.12" y="-44.7" font-family="sans-serif" font-size="11.00">Running containers &#160;↔ &#160;exetests.py &#160;(in container)</text>
</g>
<!-- cli&#45;&gt;docker -->
<g id="edge3" class="edge">
<title>cli&#45;&gt;docker</title>
<path fill="none" stroke="black" d="M176,-118.28C176,-110.23 176,-101.55 176,-93.29"/>
<polygon fill="black" stroke="black" points="179.5,-93.53 176,-83.53 172.5,-93.53 179.5,-93.53"/>
</g>
</g>
</svg>
